<mxfile host="app.diagrams.net" agent="Mozilla/5.0 (X11; Linux x86_64) AppleWebKit/537.36 (KHTML, like Gecko) Chrome/131.0.0.0 Safari/537.36" version="24.8.7">
  <diagram name="Page-1" id="4zq-fiClxfikh_CYW6or">
    <mxGraphModel dx="786" dy="478" grid="1" gridSize="10" guides="1" tooltips="1" connect="1" arrows="1" fold="1" page="1" pageScale="1" pageWidth="827" pageHeight="1169" math="0" shadow="0">
      <root>
        <mxCell id="0" />
        <mxCell id="1" parent="0" />
        <mxCell id="O8LrZWvb8dor5HWVLKrf-1" value="" style="rounded=1;whiteSpace=wrap;html=1;fillColor=#f0f6ff;strokeColor=#6c8ebf;" vertex="1" parent="1">
          <mxGeometry x="290" y="360" width="210" height="80" as="geometry" />
        </mxCell>
        <mxCell id="O8LrZWvb8dor5HWVLKrf-28" value="&lt;font style=&quot;font-size: 18px;&quot;&gt;Client&lt;/font&gt;" style="rounded=1;whiteSpace=wrap;html=1;fillColor=#dae8fc;strokeColor=#6c8ebf;" vertex="1" parent="1">
          <mxGeometry x="290" y="270" width="210" height="50" as="geometry" />
        </mxCell>
        <mxCell id="O8LrZWvb8dor5HWVLKrf-29" value="&lt;font style=&quot;font-size: 18px;&quot;&gt;Master&lt;/font&gt;" style="text;html=1;align=center;verticalAlign=middle;whiteSpace=wrap;rounded=0;" vertex="1" parent="1">
          <mxGeometry x="367.5" y="410" width="60" height="30" as="geometry" />
        </mxCell>
        <mxCell id="O8LrZWvb8dor5HWVLKrf-30" value="&lt;font style=&quot;font-size: 16px;&quot;&gt;Metadata&lt;/font&gt;" style="rounded=1;whiteSpace=wrap;html=1;" vertex="1" parent="1">
          <mxGeometry x="315" y="373" width="165" height="30" as="geometry" />
        </mxCell>
        <mxCell id="O8LrZWvb8dor5HWVLKrf-31" value="&lt;font style=&quot;font-size: 18px;&quot;&gt;Primary&lt;/font&gt;" style="rounded=1;whiteSpace=wrap;html=1;fillColor=#f0f6ff;strokeColor=#6c8ebf;" vertex="1" parent="1">
          <mxGeometry x="580" y="270" width="230" height="40" as="geometry" />
        </mxCell>
        <mxCell id="O8LrZWvb8dor5HWVLKrf-33" value="&lt;font style=&quot;font-size: 18px;&quot;&gt;Secondary&lt;/font&gt;" style="rounded=1;whiteSpace=wrap;html=1;fillColor=#f0f6ff;strokeColor=#6c8ebf;" vertex="1" parent="1">
          <mxGeometry x="580" y="400" width="230" height="40" as="geometry" />
        </mxCell>
        <mxCell id="O8LrZWvb8dor5HWVLKrf-34" value="&lt;font style=&quot;font-size: 18px;&quot;&gt;Secondary&lt;/font&gt;" style="rounded=1;whiteSpace=wrap;html=1;fillColor=#f0f6ff;strokeColor=#6c8ebf;" vertex="1" parent="1">
          <mxGeometry x="580" y="336" width="230" height="40" as="geometry" />
        </mxCell>
        <mxCell id="O8LrZWvb8dor5HWVLKrf-35" value="" style="endArrow=classic;html=1;rounded=0;exitX=0.25;exitY=1;exitDx=0;exitDy=0;entryX=0.25;entryY=0;entryDx=0;entryDy=0;" edge="1" parent="1" source="O8LrZWvb8dor5HWVLKrf-28" target="O8LrZWvb8dor5HWVLKrf-1">
          <mxGeometry width="50" height="50" relative="1" as="geometry">
            <mxPoint x="570" y="340" as="sourcePoint" />
            <mxPoint x="620" y="290" as="targetPoint" />
          </mxGeometry>
        </mxCell>
        <mxCell id="O8LrZWvb8dor5HWVLKrf-36" value="" style="endArrow=classic;html=1;rounded=0;exitX=0.75;exitY=0;exitDx=0;exitDy=0;entryX=0.75;entryY=1;entryDx=0;entryDy=0;" edge="1" parent="1" source="O8LrZWvb8dor5HWVLKrf-1" target="O8LrZWvb8dor5HWVLKrf-28">
          <mxGeometry width="50" height="50" relative="1" as="geometry">
            <mxPoint x="570" y="340" as="sourcePoint" />
            <mxPoint x="620" y="290" as="targetPoint" />
          </mxGeometry>
        </mxCell>
        <mxCell id="O8LrZWvb8dor5HWVLKrf-37" value="" style="endArrow=classic;html=1;rounded=0;exitX=1;exitY=0.5;exitDx=0;exitDy=0;entryX=0.002;entryY=0.634;entryDx=0;entryDy=0;entryPerimeter=0;" edge="1" parent="1">
          <mxGeometry width="50" height="50" relative="1" as="geometry">
            <mxPoint x="500" y="280" as="sourcePoint" />
            <mxPoint x="580.4599999999998" y="280.36" as="targetPoint" />
          </mxGeometry>
        </mxCell>
        <mxCell id="O8LrZWvb8dor5HWVLKrf-38" value="" style="endArrow=classic;html=1;rounded=0;exitX=1;exitY=0.5;exitDx=0;exitDy=0;entryX=0.002;entryY=0.634;entryDx=0;entryDy=0;entryPerimeter=0;" edge="1" parent="1">
          <mxGeometry width="50" height="50" relative="1" as="geometry">
            <mxPoint x="579.9999999999998" y="300" as="sourcePoint" />
            <mxPoint x="499.53999999999996" y="300.36" as="targetPoint" />
          </mxGeometry>
        </mxCell>
        <mxCell id="O8LrZWvb8dor5HWVLKrf-39" value="" style="endArrow=classic;html=1;rounded=0;exitX=1;exitY=0.25;exitDx=0;exitDy=0;entryX=1;entryY=0.5;entryDx=0;entryDy=0;" edge="1" parent="1" source="O8LrZWvb8dor5HWVLKrf-31" target="O8LrZWvb8dor5HWVLKrf-34">
          <mxGeometry width="50" height="50" relative="1" as="geometry">
            <mxPoint x="660" y="360" as="sourcePoint" />
            <mxPoint x="710" y="310" as="targetPoint" />
            <Array as="points">
              <mxPoint x="830" y="280" />
              <mxPoint x="830" y="356" />
            </Array>
          </mxGeometry>
        </mxCell>
        <mxCell id="O8LrZWvb8dor5HWVLKrf-40" value="" style="endArrow=classic;html=1;rounded=0;entryX=1;entryY=0.5;entryDx=0;entryDy=0;" edge="1" parent="1" target="O8LrZWvb8dor5HWVLKrf-33">
          <mxGeometry width="50" height="50" relative="1" as="geometry">
            <mxPoint x="830" y="350" as="sourcePoint" />
            <mxPoint x="710" y="310" as="targetPoint" />
            <Array as="points">
              <mxPoint x="830" y="420" />
            </Array>
          </mxGeometry>
        </mxCell>
        <mxCell id="O8LrZWvb8dor5HWVLKrf-41" value="" style="endArrow=classic;html=1;rounded=0;exitX=0;exitY=0.5;exitDx=0;exitDy=0;entryX=0.25;entryY=1;entryDx=0;entryDy=0;" edge="1" parent="1" source="O8LrZWvb8dor5HWVLKrf-33" target="O8LrZWvb8dor5HWVLKrf-31">
          <mxGeometry width="50" height="50" relative="1" as="geometry">
            <mxPoint x="530" y="440" as="sourcePoint" />
            <mxPoint x="580" y="390" as="targetPoint" />
            <Array as="points">
              <mxPoint x="570" y="420" />
              <mxPoint x="570" y="320" />
              <mxPoint x="610" y="320" />
            </Array>
          </mxGeometry>
        </mxCell>
        <mxCell id="O8LrZWvb8dor5HWVLKrf-42" value="" style="endArrow=classic;html=1;rounded=0;exitX=0.75;exitY=0;exitDx=0;exitDy=0;entryX=0.75;entryY=1;entryDx=0;entryDy=0;" edge="1" parent="1" source="O8LrZWvb8dor5HWVLKrf-34" target="O8LrZWvb8dor5HWVLKrf-31">
          <mxGeometry width="50" height="50" relative="1" as="geometry">
            <mxPoint x="750" y="340" as="sourcePoint" />
            <mxPoint x="800" y="290" as="targetPoint" />
          </mxGeometry>
        </mxCell>
        <mxCell id="O8LrZWvb8dor5HWVLKrf-43" value="2" style="text;html=1;align=center;verticalAlign=middle;whiteSpace=wrap;rounded=0;" vertex="1" parent="1">
          <mxGeometry x="450" y="325" width="20" height="30" as="geometry" />
        </mxCell>
        <mxCell id="O8LrZWvb8dor5HWVLKrf-44" value="1" style="text;html=1;align=center;verticalAlign=middle;whiteSpace=wrap;rounded=0;" vertex="1" parent="1">
          <mxGeometry x="320" y="320" width="20" height="30" as="geometry" />
        </mxCell>
        <mxCell id="O8LrZWvb8dor5HWVLKrf-45" value="3" style="text;html=1;align=center;verticalAlign=middle;whiteSpace=wrap;rounded=0;" vertex="1" parent="1">
          <mxGeometry x="530" y="255" width="20" height="30" as="geometry" />
        </mxCell>
        <mxCell id="O8LrZWvb8dor5HWVLKrf-46" value="5" style="text;html=1;align=center;verticalAlign=middle;whiteSpace=wrap;rounded=0;" vertex="1" parent="1">
          <mxGeometry x="530" y="295" width="20" height="30" as="geometry" />
        </mxCell>
        <mxCell id="O8LrZWvb8dor5HWVLKrf-47" value="3" style="text;html=1;align=center;verticalAlign=middle;whiteSpace=wrap;rounded=0;" vertex="1" parent="1">
          <mxGeometry x="827" y="306" width="20" height="30" as="geometry" />
        </mxCell>
        <mxCell id="O8LrZWvb8dor5HWVLKrf-49" value="4" style="text;html=1;align=center;verticalAlign=middle;whiteSpace=wrap;rounded=0;" vertex="1" parent="1">
          <mxGeometry x="550" y="350" width="20" height="30" as="geometry" />
        </mxCell>
        <mxCell id="O8LrZWvb8dor5HWVLKrf-50" value="4" style="text;html=1;align=center;verticalAlign=middle;whiteSpace=wrap;rounded=0;" vertex="1" parent="1">
          <mxGeometry x="750" y="310" width="20" height="30" as="geometry" />
        </mxCell>
      </root>
    </mxGraphModel>
  </diagram>
</mxfile>
